<?xml version="1.0" encoding="UTF-8"?>
<svg xmlns="http://www.w3.org/2000/svg" viewBox="0 0 1200 1200" width="1200" height="1200" role="img" aria-label="CuraVibe monkey logo - orange theme">
  <defs>
    <!-- gradients -->
    <linearGradient id="faceGrad" x1="0" x2="1" y1="0" y2="1">
      <stop offset="0" stop-color="#ff9a3c"/>
      <stop offset="1" stop-color="#ff6a00"/>
    </linearGradient>
    <linearGradient id="innerGrad" x1="0" x2="1" y1="0" y2="1">
      <stop offset="0" stop-color="#ffd9b3"/>
      <stop offset="1" stop-color="#ffb57a"/>
    </linearGradient>
    <radialGradient id="earShadow" cx="50%" cy="30%" r="60%">
      <stop offset="0" stop-color="#000" stop-opacity="0.08"/>
      <stop offset="1" stop-color="#000" stop-opacity="0"/>
    </radialGradient>

    <!-- soft drop shadow -->
    <filter id="softShadow" x="-50%" y="-50%" width="200%" height="200%">
      <feGaussianBlur in="SourceAlpha" stdDeviation="18" result="blur"/>
      <feOffset in="blur" dx="0" dy="18" result="offset"/>
      <feMerge>
        <feMergeNode in="offset"/>
        <feMergeNode in="SourceGraphic"/>
      </feMerge>
    </filter>

    <!-- small glow for terminal -->
    <filter id="glow" x="-40%" y="-40%" width="180%" height="180%">
      <feGaussianBlur stdDeviation="6" result="coloredBlur"/>
      <feMerge>
        <feMergeNode in="coloredBlur"/>
        <feMergeNode in="SourceGraphic"/>
      </feMerge>
    </filter>

    <!-- code bracket shape path reused -->
    <path id="curly" d="M 0 0 C 20 10 30 30 20 60 C 10 90 -10 120 20 150" />
  </defs>

  <!-- background (transparent by default) - comment out if you want white -->
  <!-- <rect width="100%" height="100%" fill="#fff"/> -->

  <!-- main wrapper group for scaling -->
  <g transform="translate(600,600)">
    <!-- subtle drop shadow behind entire face -->
    <g transform="translate(0,40)" filter="url(#softShadow)">
      <!-- outer head -->
      <ellipse cx="0" cy="-20" rx="380" ry="340" fill="url(#faceGrad)"/>
      <!-- ear left -->
      <g transform="translate(-360,-40)">
        <ellipse cx="0" cy="0" rx="120" ry="130" fill="url(#faceGrad)"/>
        <ellipse cx="-20" cy="0" rx="65" ry="75" fill="url(#innerGrad)"/>
        <ellipse cx="0" cy="0" rx="120" ry="130" fill="url(#earShadow)" opacity="0.18"/>
      </g>
      <!-- ear right -->
      <g transform="translate(360,-40)">
        <ellipse cx="0" cy="0" rx="120" ry="130" fill="url(#faceGrad)"/>
        <ellipse cx="20" cy="0" rx="65" ry="75" fill="url(#innerGrad)"/>
        <ellipse cx="0" cy="0" rx="120" ry="130" fill="url(#earShadow)" opacity="0.18"/>
      </g>
    </g>

    <!-- inner face -->
    <g>
      <path d="M -300 -40
               C -300 -220 -120 -380 0 -380
               C 120 -380 300 -220 300 -40
               C 300 110 180 220 0 220
               C -180 220 -300 110 -300 -40 Z"
            fill="url(#innerGrad)" stroke="#ff8a30" stroke-width="12" stroke-linejoin="round"/>
    </g>

    <!-- mouth and nose -->
    <g transform="translate(0,120)">
      <!-- mouth line -->
      <path d="M -120 20 C -60 65 60 65 120 20" stroke="#c85a00" stroke-width="18" stroke-linecap="round" fill="none" />
      <!-- nostrils -->
      <ellipse cx="-28" cy="-30" rx="6" ry="10" fill="#c85a00" transform="rotate(-15 -28 -30)"/>
      <ellipse cx="28" cy="-30" rx="6" ry="10" fill="#c85a00" transform="rotate(15 28 -30)"/>
    </g>

    <!-- eyes with IDE hint (left eye is a code caret, right eye is a small terminal cursor) -->
    <g transform="translate(0,-60)">
      <!-- left eye: circular with small "</>" mark -->
      <g transform="translate(-120, -40)">
        <circle cx="0" cy="0" r="60" fill="#fff" />
        <g transform="translate() scale(0.9)" fill="#ff6a00">
          <path d="M -18 -6 L -6 0 L -18 6 Z" /> <!-- left caret -->
          <path d="M 18 -6 L 6 0 L 18 6 Z" />    <!-- right caret -->
        </g>
      </g>

      <!-- right eye: round with a tiny monaco-like cursor block -->
      <g transform="translate(120, -40)">
        <circle cx="0" cy="0" r="60" fill="#fff" />
        <!-- tiny terminal rectangle inside eye -->
        <rect x="-18" y="-10" width="40" height="30" rx="5" ry="5" fill="#ff6a00" />
        <rect x="-6" y="-6" width="10" height="10" rx="2" ry="2" fill="#fff"/>
      </g>
    </g>

  

    <!-- antenna shaped as curly brace to hint code (placed on top center) -->
    <g transform="translate(0,-417)">
      <!-- rod -->
      <rect x="-8" y="30" width="16" height="50" rx="8" ry="8" fill="#ff8a30"/>
      <!-- curly brace top: stylized using paths -->
      <path d="M 0 100
               c 0 -40 40 -40 40 -80
               c 0 -40 -40 -40 -40 -80"
            fill="none" stroke="#ff8a30" stroke-width="20" stroke-linecap="round" stroke-linejoin="round" transform="translate(0, -60) scale(0.9)"/>
      <!-- circle top -->
      <circle cx="0" cy="-120" r="34" fill="#ff6a00" stroke="#ff8a30" stroke-width="6"/>
      <!-- tiny bracket overlay (white) to make the antenna look like a code curly) -->
    </g>

    <!-- subtle outer stroke around entire head to make it crisp on light/dark -->
    <g>
      <path d="M -300 -40
               C -300 -220 -120 -380 0 -380
               C 120 -380 300 -220 300 -40
               C 300 110 180 220 0 220
               C -180 220 -300 110 -300 -40 Z"
            fill="none" stroke="#ff8a30" stroke-width="6" opacity="0.25" />
    </g>
  </g>

  <!-- small accessible title as metadata -->
  <title>CuraVibe — Orange Monkey IDE Logo</title>
  <desc>Iconic stylized monkey head with orange gradient, curly-brace antenna, and tiny terminal motif — vector SVG suitable for HD usage.</desc>
</svg>